<svg width="20" height="20" viewBox="0 0 20 20" fill="none" xmlns="http://www.w3.org/2000/svg">
<path fill-rule="evenodd" clip-rule="evenodd" d="M11 1C11 0.447715 10.5523 0 10 0C9.44771 0 9 0.447715 9 1V9H1C0.447715 9 0 9.44771 0 10C0 10.5523 0.447715 11 1 11H9V19C9 19.5523 9.44771 20 10 20C10.5523 20 11 19.5523 11 19V11H19C19.5523 11 20 10.5523 20 10C20 9.44771 19.5523 9 19 9H11V1Z" fill="url(#paint0_linear_28328_373)"/>
<defs>
<linearGradient id="paint0_linear_28328_373" x1="-3.5" y1="16.4706" x2="25.4962" y2="8.19759" gradientUnits="userSpaceOnUse">
<stop offset="0.0237305" stop-color="#94783E"/>
<stop offset="0.216904" stop-color="#F3EDA6"/>
<stop offset="0.329505" stop-color="#F8FAE5"/>
<stop offset="0.486109" stop-color="#FFE2BE"/>
<stop offset="0.723574" stop-color="#D5BE88"/>
<stop offset="0.809185" stop-color="#F8FAE5"/>
<stop offset="0.902849" stop-color="#D5BE88"/>
</linearGradient>
</defs>
</svg>
