<svg width="10" height="8" viewBox="0 0 10 8" fill="none" xmlns="http://www.w3.org/2000/svg">
<path d="M1.79742 0.0828505C1.75248 0.0331789 1.68974 0.00347979 1.62301 0.000286773C1.55628 -0.00290624 1.49101 0.0206683 1.44158 0.0658244C1.39214 0.11098 1.36259 0.174019 1.35941 0.241072C1.35623 0.308126 1.37969 0.373701 1.42463 0.423373L2.30577 1.40237C0.729895 2.33455 0.0521009 3.8286 0.0224474 3.8967C0.00766055 3.92871 0 3.96357 0 3.99886C0 4.03414 0.00766055 4.06901 0.0224474 4.10101C0.0393923 4.13507 0.390998 4.92252 1.17893 5.70998C1.96687 6.49744 3.16148 7.31895 5 7.31895C5.76875 7.32358 6.52922 7.15942 7.22825 6.83796L8.20258 7.91486C8.22591 7.94147 8.25457 7.96281 8.2867 7.97749C8.31883 7.99216 8.35368 7.99983 8.38897 7.99999C8.45215 8.00044 8.51298 7.97599 8.55842 7.93189C8.58364 7.91001 8.60417 7.8832 8.61876 7.85309C8.63335 7.82299 8.64169 7.79022 8.64327 7.75677C8.64486 7.72332 8.63965 7.6899 8.62798 7.65854C8.61631 7.62718 8.5984 7.59853 8.57537 7.57434L1.79742 0.0828505ZM3.86046 3.11776L5.76676 5.22474C5.48062 5.40398 5.14097 5.47667 4.80698 5.43015C4.47299 5.38363 4.16583 5.22084 3.93901 4.97015C3.71219 4.71945 3.5801 4.39675 3.56575 4.05825C3.55139 3.71975 3.65569 3.38693 3.86046 3.11776ZM5 6.80817C3.66983 6.80817 2.50911 6.32292 1.55172 5.3652C1.14802 4.96329 0.806725 4.5027 0.539266 3.99886C0.721423 3.64982 1.39074 2.50056 2.65737 1.78972L3.51309 2.73467C3.20912 3.09732 3.04644 3.55848 3.05525 4.03254C3.06406 4.50659 3.24377 4.96132 3.561 5.31232C3.87824 5.66332 4.31145 5.88673 4.78021 5.94107C5.24897 5.99542 5.72144 5.87701 6.10989 5.60783L6.86393 6.4421C6.27312 6.68777 5.63939 6.81223 5 6.80817ZM9.97755 4.10101C9.96061 4.14358 9.53699 5.08002 8.58384 5.93983C8.53706 5.98129 8.47676 6.00401 8.41439 6.00368C8.37851 6.00333 8.34309 5.99559 8.3103 5.98095C8.27752 5.96631 8.24806 5.94507 8.22376 5.91855C8.2014 5.89345 8.1842 5.86415 8.17316 5.83235C8.16211 5.80054 8.15744 5.76685 8.15941 5.73322C8.16138 5.69959 8.16995 5.66668 8.18463 5.6364C8.19931 5.60611 8.21981 5.57904 8.24494 5.55675C8.73736 5.11251 9.1488 4.5853 9.46073 3.99886C9.19328 3.49502 8.85198 3.03443 8.44828 2.63251C7.49089 1.67479 6.33017 1.18955 5 1.18955C4.7204 1.18843 4.44122 1.21122 4.16547 1.25765C4.10154 1.26378 4.03768 1.24538 3.98671 1.20613C3.93574 1.16689 3.90144 1.10971 3.89071 1.04609C3.87998 0.98248 3.89361 0.917141 3.92886 0.863211C3.96412 0.809281 4.01838 0.770757 4.08074 0.755382C4.38446 0.703817 4.69198 0.678186 5 0.678765C6.83852 0.678765 8.09244 1.55135 8.82107 2.28773C9.54969 3.02411 9.96061 3.86265 9.97755 3.8967C9.99234 3.92871 10 3.96357 10 3.99886C10 4.03414 9.99234 4.06901 9.97755 4.10101ZM5.27112 2.57718C5.20483 2.56476 5.14617 2.52639 5.10803 2.47051C5.0699 2.41463 5.05542 2.34582 5.06778 2.27922C5.08014 2.21261 5.11832 2.15367 5.17393 2.11535C5.22955 2.07704 5.29803 2.06249 5.36431 2.07491C5.77869 2.15555 6.15603 2.36863 6.44002 2.68237C6.72402 2.99611 6.89947 3.3937 6.94019 3.81583C6.94608 3.88294 6.92535 3.94967 6.88251 4.00149C6.83966 4.05331 6.77817 4.08602 6.71143 4.0925H6.68601C6.62324 4.09273 6.56268 4.06921 6.51637 4.02662C6.47006 3.98404 6.4414 3.9255 6.43608 3.86265C6.40602 3.55074 6.27631 3.25697 6.06633 3.02527C5.85635 2.79357 5.57738 2.63637 5.27112 2.57718Z" fill="url(#paint0_linear_28306_897)"/>
<defs>
<linearGradient id="paint0_linear_28306_897" x1="-1.75" y1="6.58823" x2="12.1592" y2="1.62765" gradientUnits="userSpaceOnUse">
<stop offset="0.0237305" stop-color="#94783E"/>
<stop offset="0.216904" stop-color="#F3EDA6"/>
<stop offset="0.329505" stop-color="#F8FAE5"/>
<stop offset="0.486109" stop-color="#FFE2BE"/>
<stop offset="0.723574" stop-color="#D5BE88"/>
<stop offset="0.809185" stop-color="#F8FAE5"/>
<stop offset="0.902849" stop-color="#D5BE88"/>
</linearGradient>
</defs>
</svg>
