<svg width="16" height="17" viewBox="0 0 16 17" fill="none" xmlns="http://www.w3.org/2000/svg">
<path d="M13.4166 13.9417C14.6666 12.8083 14.6666 10.65 14.6666 9.66666C14.6666 8.7826 14.3154 7.93476 13.6903 7.30964C13.0652 6.68452 12.2174 6.33333 11.3333 6.33333C10.75 6.33333 10.1666 6.49999 9.66664 6.79999V2.99999C9.66664 2.33695 9.40324 1.70107 8.9344 1.23223C8.46556 0.763385 7.82968 0.499992 7.16664 0.499992C6.54164 0.499992 5.9583 0.741659 5.49997 1.14999C5.04187 0.739515 4.4484 0.512527 3.8333 0.512527C3.2182 0.512527 2.62474 0.739515 2.16664 1.14999C1.7083 0.733326 1.11664 0.499992 0.499969 0.499992V2.16666C0.720983 2.16666 0.932945 2.25446 1.08923 2.41074C1.24551 2.56702 1.3333 2.77898 1.3333 2.99999V11.3333H2.99997V2.99999C2.99997 2.77898 3.08777 2.56702 3.24405 2.41074C3.40033 2.25446 3.61229 2.16666 3.8333 2.16666C4.05432 2.16666 4.26628 2.25446 4.42256 2.41074C4.57884 2.56702 4.66664 2.77898 4.66664 2.99999V11.3333H6.3333V2.99999C6.3333 2.77898 6.4211 2.56702 6.57738 2.41074C6.73366 2.25446 6.94562 2.16666 7.16664 2.16666C7.38765 2.16666 7.59961 2.25446 7.75589 2.41074C7.91217 2.56702 7.99997 2.77898 7.99997 2.99999V9.66666C7.99997 10.65 7.99997 12.8083 9.24997 13.9417C8.59997 14.2833 7.89997 14.5333 7.16664 14.6667V16.3333C8.24164 16.3333 10.3666 15.2833 11.3333 14.775C12.3 15.2833 14.425 16.3333 15.5 16.3333V14.6667C14.7666 14.5333 14.0666 14.2833 13.4166 13.9417ZM11.3333 7.99999C11.7753 7.99999 12.1993 8.17559 12.5118 8.48815C12.8244 8.80071 13 9.22463 13 9.66666C13 12.1 12.55 13 11.3333 13C10.1166 13 9.66664 12.1 9.66664 9.66666C9.66664 9.22463 9.84223 8.80071 10.1548 8.48815C10.4674 8.17559 10.8913 7.99999 11.3333 7.99999Z" fill="white"/>
</svg>
