<svg width="19" height="16" viewBox="0 0 19 16" fill="none" xmlns="http://www.w3.org/2000/svg">
<path d="M4.4168 9.25001C5.28038 9.0243 6.92268 7.93055 7.33347 7.58334V4.66667L4.83347 3.83334C4.6623 3.15817 4.13118 1.7963 3.58347 1.33334L2.98004 3.21413C1.89601 3.69638 0.124946 5.87038 1.08346 8.41667C1.50013 9.25001 2.36551 12.1667 3.58347 14.25" stroke="white" stroke-width="1.44841" stroke-linecap="round" stroke-linejoin="round"/>
<path d="M9.00005 3.50223C10.8297 3.19952 14.6353 3.53248 15.2208 7.28594C15.3428 7.84094 15.1476 10.5036 13.3911 11.7144C13.0373 11.9583 12.75 12.9999 12.75 14.2499" stroke="white" stroke-width="1.44841" stroke-linecap="round" stroke-linejoin="round"/>
<path d="M9.83338 14.6666C9.83338 13.7462 9.08717 13 8.16671 13C7.24625 13 6.50005 13.7462 6.50005 14.6666" stroke="white" stroke-width="1.44841" stroke-linecap="round"/>
<path d="M15.25 7.99999C15.4584 8.41665 16.3744 8.69561 17.0116 8.04236C17.3825 7.66207 17.6862 6.47244 16.7492 5.91665" stroke="white" stroke-width="1.44841" stroke-linecap="round" stroke-linejoin="round"/>
</svg>
